{
  "accessors": [
    {
      "bufferView": 2,
      "componentType": 5126,
      "count": 65532,
      "max": [
        -0.017369000241160393,
        0.39073801040649414,
        0.6202089786529541
      ],
      "min": [
        -0.12991200387477875,
        0.27813199162483215,
        0.5614659786224365
      ],
      "type": "VEC3"
    },
    {
      "bufferView": 2,
      "byteOffset": 786384,
      "componentType": 5126,
      "count": 65532,
      "max": [
        0.9998676776885986,
        0.9999973773956299,
        1.0
      ],
      "min": [
        -0.999984860420227,
        -0.9998109936714172,
        -0.9999995231628418
      ],
      "type": "VEC3"
    },
    {
      "bufferView": 1,
      "componentType": 5126,
      "count": 65532,
      "max": [
        0.9980469942092896,
        0.8645840287208557
      ],
      "min": [
        0.0019529999699443579,
        0.0019759999122470617
      ],
      "type": "VEC2"
    },
    {
      "bufferView": 0,
      "componentType": 5125,
      "count": 362103,
      "type": "SCALAR"
    },
    {
      "bufferView": 2,
      "byteOffset": 1572768,
      "componentType": 5126,
      "count": 21250,
      "max": [
        -0.017472000792622566,
        0.39073801040649414,
        0.6057149767875671
      ],
      "min": [
        -0.1298999935388565,
        0.2782450020313263,
        0.5614690184593201
      ],
      "type": "VEC3"
    },
    {
      "bufferView": 2,
      "byteOffset": 1827768,
      "componentType": 5126,
      "count": 21250,
      "max": [
        0.9999490976333618,
        0.9999239444732666,
        0.9999996423721313
      ],
      "min": [
        -0.9995610117912292,
        -0.9998217225074768,
        -0.9999964237213135
      ],
      "type": "VEC3"
    },
    {
      "bufferView": 1,
      "byteOffset": 524256,
      "componentType": 5126,
      "count": 21250,
      "max": [
        0.9956380128860474,
        0.8609039783477783
      ],
      "min": [
        0.0019529999699443579,
        0.0019529999699443579
      ],
      "type": "VEC2"
    },
    {
      "bufferView": 0,
      "byteOffset": 1448412,
      "componentType": 5125,
      "count": 87897,
      "type": "SCALAR"
    },
    {
      "bufferView": 2,
      "byteOffset": 2082768,
      "componentType": 5126,
      "count": 65532,
      "max": [
        0.013756000436842442,
        0.4208090007305145,
        0.5680149793624878
      ],
      "min": [
        -0.15845400094985962,
        0.24885399639606476,
        0.16515600681304932
      ],
      "type": "VEC3"
    },
    {
      "bufferView": 2,
      "byteOffset": 2869152,
      "componentType": 5126,
      "count": 65532,
      "max": [
        1.0,
        0.9999997615814209,
        0.9999945163726807
      ],
      "min": [
        -0.9999442100524902,
        -0.9999456405639648,
        -0.9999995231628418
      ],
      "type": "VEC3"
    },
    {
      "bufferView": 1,
      "byteOffset": 694256,
      "componentType": 5126,
      "count": 65532,
      "max": [
        0.9980469942092896,
        0.904367983341217
      ],
      "min": [
        0.0019529999699443579,
        0.0019529999699443579
      ],
      "type": "VEC2"
    },
    {
      "bufferView": 0,
      "byteOffset": 1800000,
      "componentType": 5125,
      "count": 356184,
      "type": "SCALAR"
    },
    {
      "bufferView": 2,
      "byteOffset": 3655536,
      "componentType": 5126,
      "count": 23731,
      "max": [
        0.01373900007456541,
        0.4206570088863373,
        0.5679929852485657
      ],
      "min": [
        -0.15836699306964874,
        0.2490449994802475,
        0.16463500261306763
      ],
      "type": "VEC3"
    },
    {
      "bufferView": 2,
      "byteOffset": 3940308,
      "componentType": 5126,
      "count": 23731,
      "max": [
        0.9999967813491821,
        0.9999864101409912,
        0.9999823570251465
      ],
      "min": [
        -0.999817430973053,
        -0.9998611211776733,
        -0.9999991655349731
      ],
      "type": "VEC3"
    },
    {
      "bufferView": 1,
      "byteOffset": 1218512,
      "componentType": 5126,
      "count": 23731,
      "max": [
        0.9921150207519531,
        0.9045370221138
      ],
      "min": [
        0.0019529999699443579,
        0.0019529999699443579
      ],
      "type": "VEC2"
    },
    {
      "bufferView": 0,
      "byteOffset": 3224736,
      "componentType": 5125,
      "count": 93813,
      "type": "SCALAR"
    }
  ],
  "asset": {
    "extras": {
      "author": "The Smithsonian Institution (https://sketchfab.com/Smithsonian)",
      "license": "CC0-1.0 (http://creativecommons.org/publicdomain/zero/1.0/)",
      "source": "https://sketchfab.com/3d-models/baluster-vase-one-of-three-in-a-five-piece-50bbce380bff46c491ed9887e278f690",
      "title": "Baluster Vase, One of Three in a Five-Piece"
    },
    "generator": "Sketchfab-12.66.0",
    "version": "2.0"
  },
  "bufferViews": [
    {
      "buffer": 0,
      "byteLength": 3599988,
      "name": "floatBufferViews",
      "target": 34963
    },
    {
      "buffer": 0,
      "byteLength": 1408360,
      "byteOffset": 3599988,
      "byteStride": 8,
      "name": "floatBufferViews",
      "target": 34962
    },
    {
      "buffer": 0,
      "byteLength": 4225080,
      "byteOffset": 5008348,
      "byteStride": 12,
      "name": "floatBufferViews",
      "target": 34962
    }
  ],
  "buffers": [
    {
      "byteLength": 9233428,
      "uri": "scene.bin"
    }
  ],
  "images": [
    {
      "uri": "textures/material_baseColor.jpeg"
    },
    {
      "uri": "textures/ml.001_baseColor.jpeg"
    }
  ],
  "materials": [
    {
      "doubleSided": true,
      "name": "material",
      "pbrMetallicRoughness": {
        "baseColorTexture": {
          "index": 0
        },
        "metallicFactor": 0.0
      }
    },
    {
      "doubleSided": true,
      "name": "ml.001",
      "pbrMetallicRoughness": {
        "baseColorTexture": {
          "index": 1
        },
        "metallicFactor": 0.0,
        "roughnessFactor": 0.08318180893406724
      }
    }
  ],
  "meshes": [
    {
      "name": "Object_0",
      "primitives": [
        {
          "attributes": {
            "NORMAL": 1,
            "POSITION": 0,
            "TEXCOORD_0": 2
          },
          "indices": 3,
          "material": 0,
          "mode": 4
        }
      ]
    },
    {
      "name": "Object_1",
      "primitives": [
        {
          "attributes": {
            "NORMAL": 5,
            "POSITION": 4,
            "TEXCOORD_0": 6
          },
          "indices": 7,
          "material": 0,
          "mode": 4
        }
      ]
    },
    {
      "name": "Object_2",
      "primitives": [
        {
          "attributes": {
            "NORMAL": 9,
            "POSITION": 8,
            "TEXCOORD_0": 10
          },
          "indices": 11,
          "material": 1,
          "mode": 4
        }
      ]
    },
    {
      "name": "Object_3",
      "primitives": [
        {
          "attributes": {
            "NORMAL": 13,
            "POSITION": 12,
            "TEXCOORD_0": 14
          },
          "indices": 15,
          "material": 1,
          "mode": 4
        }
      ]
    }
  ],
  "nodes": [
    {
      "children": [
        1
      ],
      "matrix": [
        1.9117681980133057,
        0.0,
        0.0,
        0.0,
        0.0,
        4.244978142361035e-16,
        -1.9117681980133057,
        0.0,
        0.0,
        1.9117681980133057,
        4.244978142361035e-16,
        0.0,
        0.0,
        0.0,
        0.0,
        1.0
      ],
      "name": "Sketchfab_model"
    },
    {
      "children": [
        2,
        3,
        4,
        5
      ],
      "name": "balustervase_combined.obj.cleaner.materialmerger.gles"
    },
    {
      "mesh": 0,
      "name": "Object_2"
    },
    {
      "mesh": 1,
      "name": "Object_3"
    },
    {
      "mesh": 2,
      "name": "Object_4"
    },
    {
      "mesh": 3,
      "name": "Object_5"
    }
  ],
  "samplers": [
    {
      "magFilter": 9729,
      "minFilter": 9987,
      "wrapS": 10497,
      "wrapT": 10497
    }
  ],
  "scene": 0,
  "scenes": [
    {
      "name": "Sketchfab_Scene",
      "nodes": [
        0
      ]
    }
  ],
  "textures": [
    {
      "sampler": 0,
      "source": 0
    },
    {
      "sampler": 0,
      "source": 1
    }
  ]
}
