{
  "accessors": [
    {
      "bufferView": 2,
      "componentType": 5126,
      "count": 6863,
      "max": [
        0.07482201606035233,
        0.1497523933649063,
        0.28300967812538147
      ],
      "min": [
        -0.07814981788396835,
        -0.10024762153625488,
        1.1276967626372425e-07
      ],
      "type": "VEC3"
    },
    {
      "bufferView": 2,
      "byteOffset": 82356,
      "componentType": 5126,
      "count": 6863,
      "max": [
        0.9998652935028076,
        0.9941195249557495,
        0.9942260980606079
      ],
      "min": [
        -0.9999711513519287,
        -0.9998189806938171,
        -1.0
      ],
      "type": "VEC3"
    },
    {
      "bufferView": 3,
      "componentType": 5126,
      "count": 6863,
      "max": [
        0.9999635219573975,
        0.9868977665901184,
        0.9998877644538879,
        1.0
      ],
      "min": [
        -0.999411404132843,
        -0.9999791383743286,
        -0.9999805688858032,
        1.0
      ],
      "type": "VEC4"
    },
    {
      "bufferView": 1,
      "componentType": 5126,
      "count": 6863,
      "max": [
        0.999540388584137,
        0.9828617572784424
      ],
      "min": [
        0.0004596048383973539,
        0.00045959820272400975
      ],
      "type": "VEC2"
    },
    {
      "bufferView": 1,
      "byteOffset": 54904,
      "componentType": 5126,
      "count": 6863,
      "max": [
        0.999540388584137,
        0.9828617572784424
      ],
      "min": [
        0.0004596048383973539,
        0.00045959820272400975
      ],
      "type": "VEC2"
    },
    {
      "bufferView": 0,
      "componentType": 5125,
      "count": 35850,
      "type": "SCALAR"
    }
  ],
  "asset": {
    "extras": {
      "author": "Prince Obrymec (https://sketchfab.com/prince-obrymec)",
      "license": "SKETCHFAB Standard (https://sketchfab.com/licenses)",
      "source": "https://sketchfab.com/3d-models/cat-statue-fb4f3bfccf6c404fbac221aa144e8540",
      "title": "Cat Statue"
    },
    "generator": "Sketchfab-16.95.0",
    "version": "2.0"
  },
  "bufferViews": [
    {
      "buffer": 0,
      "byteLength": 143400,
      "name": "floatBufferViews",
      "target": 34963
    },
    {
      "buffer": 0,
      "byteLength": 109808,
      "byteOffset": 143400,
      "byteStride": 8,
      "name": "floatBufferViews",
      "target": 34962
    },
    {
      "buffer": 0,
      "byteLength": 164712,
      "byteOffset": 253208,
      "byteStride": 12,
      "name": "floatBufferViews",
      "target": 34962
    },
    {
      "buffer": 0,
      "byteLength": 109808,
      "byteOffset": 417920,
      "byteStride": 16,
      "name": "floatBufferViews",
      "target": 34962
    }
  ],
  "buffers": [
    {
      "byteLength": 527728,
      "uri": "scene.bin"
    }
  ],
  "images": [
    {
      "uri": "textures/cat_statue_baseColor.jpeg"
    },
    {
      "uri": "textures/cat_statue_metallicRoughness.png"
    },
    {
      "uri": "textures/cat_statue_normal.png"
    }
  ],
  "materials": [
    {
      "doubleSided": true,
      "name": "cat_statue",
      "normalTexture": {
        "index": 2
      },
      "occlusionTexture": {
        "index": 1
      },
      "pbrMetallicRoughness": {
        "baseColorTexture": {
          "index": 0
        },
        "metallicRoughnessTexture": {
          "index": 1
        }
      }
    }
  ],
  "meshes": [
    {
      "name": "cat_statue_cat_statue_0",
      "primitives": [
        {
          "attributes": {
            "NORMAL": 1,
            "POSITION": 0,
            "TANGENT": 2,
            "TEXCOORD_0": 3,
            "TEXCOORD_1": 4
          },
          "indices": 5,
          "material": 0,
          "mode": 4
        }
      ]
    }
  ],
  "nodes": [
    {
      "children": [
        1
      ],
      "matrix": [
        1.0,
        0.0,
        0.0,
        0.0,
        0.0,
        2.220446049250313e-16,
        -1.0,
        0.0,
        0.0,
        1.0,
        2.220446049250313e-16,
        0.0,
        0.0,
        0.0,
        0.0,
        1.0
      ],
      "name": "Sketchfab_model"
    },
    {
      "children": [
        2
      ],
      "matrix": [
        0.009999999776482582,
        0.0,
        0.0,
        0.0,
        0.0,
        0.0,
        0.009999999776482582,
        0.0,
        0.0,
        -0.009999999776482582,
        0.0,
        0.0,
        0.0,
        0.0,
        0.0,
        1.0
      ],
      "name": "590f9f8eea0143e9b2f099c5e874ea28.fbx"
    },
    {
      "children": [
        3
      ],
      "name": "RootNode"
    },
    {
      "children": [
        4
      ],
      "matrix": [
        100.0,
        0.0,
        0.0,
        0.0,
        0.0,
        -4.371139006309477e-06,
        -99.9999999999999,
        0.0,
        0.0,
        99.9999999999999,
        -4.371139006309477e-06,
        0.0,
        0.0,
        0.0,
        0.0,
        1.0
      ],
      "name": "cat_statue"
    },
    {
      "mesh": 0,
      "name": "cat_statue_cat_statue_0"
    }
  ],
  "samplers": [
    {
      "magFilter": 9729,
      "minFilter": 9987,
      "wrapS": 10497,
      "wrapT": 10497
    }
  ],
  "scene": 0,
  "scenes": [
    {
      "name": "Sketchfab_Scene",
      "nodes": [
        0
      ]
    }
  ],
  "textures": [
    {
      "sampler": 0,
      "source": 0
    },
    {
      "sampler": 0,
      "source": 1
    },
    {
      "sampler": 0,
      "source": 2
    }
  ]
}
