{
  "accessors": [
    {
      "bufferView": 2,
      "componentType": 5126,
      "count": 62142,
      "max": [
        0.0957610011100769,
        0.0013490000274032354,
        0.0699940025806427
      ],
      "min": [
        -0.06446400284767151,
        -0.03057200089097023,
        -0.06252700090408325
      ],
      "type": "VEC3"
    },
    {
      "bufferView": 2,
      "byteOffset": 745704,
      "componentType": 5126,
      "count": 62142,
      "max": [
        0.9999250173568726,
        0.9999963045120239,
        0.9998923540115356
      ],
      "min": [
        -0.9997422099113464,
        -0.9999865293502808,
        -0.9999324083328247
      ],
      "type": "VEC3"
    },
    {
      "bufferView": 3,
      "componentType": 5126,
      "count": 62142,
      "max": [
        0.9998654723167419,
        0.9999635219573975,
        0.9999661445617676,
        1.0
      ],
      "min": [
        -0.9997708797454834,
        -0.9999525547027588,
        -0.9999909996986389,
        -1.0
      ],
      "type": "VEC4"
    },
    {
      "bufferView": 1,
      "componentType": 5126,
      "count": 62142,
      "max": [
        0.9996129870414734,
        0.938211977481842
      ],
      "min": [
        0.0009850000496953726,
        0.0005569999921135604
      ],
      "type": "VEC2"
    },
    {
      "bufferView": 0,
      "componentType": 5125,
      "count": 210000,
      "type": "SCALAR"
    }
  ],
  "asset": {
    "extras": {
      "author": "Cleveland Museum of Art (https://sketchfab.com/clevelandart)",
      "license": "CC0-1.0 (http://creativecommons.org/publicdomain/zero/1.0/)",
      "source": "https://sketchfab.com/3d-models/1916762-figurine-6b92656977f742088865a7d39e076dbd",
      "title": "1916.762 Figurine"
    },
    "generator": "Sketchfab-16.31.0",
    "version": "2.0"
  },
  "bufferViews": [
    {
      "buffer": 0,
      "byteLength": 840000,
      "name": "floatBufferViews",
      "target": 34963
    },
    {
      "buffer": 0,
      "byteLength": 497136,
      "byteOffset": 840000,
      "byteStride": 8,
      "name": "floatBufferViews",
      "target": 34962
    },
    {
      "buffer": 0,
      "byteLength": 1491408,
      "byteOffset": 1337136,
      "byteStride": 12,
      "name": "floatBufferViews",
      "target": 34962
    },
    {
      "buffer": 0,
      "byteLength": 994272,
      "byteOffset": 2828544,
      "byteStride": 16,
      "name": "floatBufferViews",
      "target": 34962
    }
  ],
  "buffers": [
    {
      "byteLength": 3822816,
      "uri": "scene.bin"
    }
  ],
  "images": [
    {
      "uri": "textures/1916.762_Figurine_baseColor.png"
    },
    {
      "uri": "textures/1916.762_Figurine_metallicRoughness.png"
    },
    {
      "uri": "textures/1916.762_Figurine_normal.png"
    }
  ],
  "materials": [
    {
      "doubleSided": true,
      "name": "1916.762_Figurine",
      "normalTexture": {
        "index": 2
      },
      "pbrMetallicRoughness": {
        "baseColorTexture": {
          "index": 0
        },
        "metallicFactor": 0.0,
        "metallicRoughnessTexture": {
          "index": 1
        }
      }
    }
  ],
  "meshes": [
    {
      "name": "Object_0",
      "primitives": [
        {
          "attributes": {
            "NORMAL": 1,
            "POSITION": 0,
            "TANGENT": 2,
            "TEXCOORD_0": 3
          },
          "indices": 4,
          "material": 0,
          "mode": 4
        }
      ]
    }
  ],
  "nodes": [
    {
      "children": [
        1
      ],
      "matrix": [
        0.583972692489624,
        0.8117733001708984,
        1.80249881725136e-16,
        0.0,
        0.0,
        2.220446049250313e-16,
        -1.0,
        0.0,
        -0.8117733001708984,
        0.583972692489624,
        1.2966798579086536e-16,
        0.0,
        0.0,
        0.0,
        0.0,
        1.0
      ],
      "name": "Sketchfab_model"
    },
    {
      "children": [
        2
      ],
      "name": "Figurine.obj.cleaner.materialmerger.gles"
    },
    {
      "mesh": 0,
      "name": "Object_2"
    }
  ],
  "samplers": [
    {
      "magFilter": 9729,
      "minFilter": 9987,
      "wrapS": 10497,
      "wrapT": 10497
    }
  ],
  "scene": 0,
  "scenes": [
    {
      "name": "Sketchfab_Scene",
      "nodes": [
        0
      ]
    }
  ],
  "textures": [
    {
      "sampler": 0,
      "source": 0
    },
    {
      "sampler": 0,
      "source": 1
    },
    {
      "sampler": 0,
      "source": 2
    }
  ]
}
