{
  "accessors": [
    {
      "bufferView": 2,
      "componentType": 5126,
      "count": 32468,
      "max": [
        -0.13224999606609344,
        20.22256851196289,
        -12.200207710266113
      ],
      "min": [
        -0.347243994474411,
        20.005550384521484,
        -12.286927223205566
      ],
      "type": "VEC3"
    },
    {
      "bufferView": 2,
      "byteOffset": 389616,
      "componentType": 5126,
      "count": 32468,
      "max": [
        0.9998409748077393,
        0.9999620914459229,
        0.9999982118606567
      ],
      "min": [
        -0.9992331266403198,
        -0.9998739957809448,
        -0.9999997615814209
      ],
      "type": "VEC3"
    },
    {
      "bufferView": 3,
      "componentType": 5126,
      "count": 32468,
      "max": [
        0.969627320766449,
        0.9998540282249451,
        0.9998894929885864,
        1.0
      ],
      "min": [
        -0.9991077780723572,
        -0.9999659657478333,
        -0.977383017539978,
        -1.0
      ],
      "type": "VEC4"
    },
    {
      "bufferView": 1,
      "componentType": 5126,
      "count": 32468,
      "max": [
        0.9395470023155212,
        0.9999330043792725
      ],
      "min": [
        7.000000186963007e-05,
        3.099999958067201e-05
      ],
      "type": "VEC2"
    },
    {
      "bufferView": 0,
      "componentType": 5125,
      "count": 192000,
      "type": "SCALAR"
    }
  ],
  "asset": {
    "extras": {
      "author": "Minneapolis Institute of Art (https://sketchfab.com/artsmia)",
      "license": "CC0-1.0 (http://creativecommons.org/publicdomain/zero/1.0/)",
      "source": "https://sketchfab.com/3d-models/minai-bowl-depicting-a-seated-king-12th-c-ce-dd64acda343d4e38a8023285b89175c3",
      "title": "Mina'i 'Bowl Depicting a Seated King,' 12th C CE"
    },
    "generator": "Sketchfab-12.64.0",
    "version": "2.0"
  },
  "bufferViews": [
    {
      "buffer": 0,
      "byteLength": 768000,
      "name": "floatBufferViews",
      "target": 34963
    },
    {
      "buffer": 0,
      "byteLength": 259744,
      "byteOffset": 768000,
      "byteStride": 8,
      "name": "floatBufferViews",
      "target": 34962
    },
    {
      "buffer": 0,
      "byteLength": 779232,
      "byteOffset": 1027744,
      "byteStride": 12,
      "name": "floatBufferViews",
      "target": 34962
    },
    {
      "buffer": 0,
      "byteLength": 519488,
      "byteOffset": 1806976,
      "byteStride": 16,
      "name": "floatBufferViews",
      "target": 34962
    }
  ],
  "buffers": [
    {
      "byteLength": 2326464,
      "uri": "scene.bin"
    }
  ],
  "images": [
    {
      "uri": "textures/Mia_001089_MinaiKing_64k_baseColor.jpeg"
    },
    {
      "uri": "textures/Mia_001089_MinaiKing_64k_metallicRoughness.png"
    },
    {
      "uri": "textures/Mia_001089_MinaiKing_64k_normal.png"
    }
  ],
  "materials": [
    {
      "doubleSided": true,
      "name": "Mia_001089_MinaiKing_64k",
      "normalTexture": {
        "index": 2
      },
      "occlusionTexture": {
        "index": 1
      },
      "pbrMetallicRoughness": {
        "baseColorTexture": {
          "index": 0
        },
        "metallicFactor": 0.0,
        "metallicRoughnessTexture": {
          "index": 1
        }
      }
    }
  ],
  "meshes": [
    {
      "name": "Object_0",
      "primitives": [
        {
          "attributes": {
            "NORMAL": 1,
            "POSITION": 0,
            "TANGENT": 2,
            "TEXCOORD_0": 3
          },
          "indices": 4,
          "material": 0,
          "mode": 4
        }
      ]
    }
  ],
  "nodes": [
    {
      "children": [
        1
      ],
      "matrix": [
        1.0,
        0.0,
        0.0,
        0.0,
        0.0,
        2.220446049250313e-16,
        -1.0,
        0.0,
        0.0,
        1.0,
        2.220446049250313e-16,
        0.0,
        0.0,
        0.0,
        0.0,
        1.0
      ],
      "name": "Sketchfab_model"
    },
    {
      "children": [
        2
      ],
      "name": "Mia_001089_MinaiKing_64k.obj.cleaner.materialmerger.gles"
    },
    {
      "mesh": 0,
      "name": "Object_2"
    }
  ],
  "samplers": [
    {
      "magFilter": 9729,
      "minFilter": 9987,
      "wrapS": 10497,
      "wrapT": 10497
    }
  ],
  "scene": 0,
  "scenes": [
    {
      "name": "Sketchfab_Scene",
      "nodes": [
        0
      ]
    }
  ],
  "textures": [
    {
      "sampler": 0,
      "source": 0
    },
    {
      "sampler": 0,
      "source": 1
    },
    {
      "sampler": 0,
      "source": 2
    }
  ]
}
