{
  "accessors": [
    {
      "bufferView": 2,
      "componentType": 5126,
      "count": 55023,
      "max": [
        0.4770439863204956,
        0.07484599947929382,
        0.12968899309635162
      ],
      "min": [
        0.367343008518219,
        -0.002240000059828162,
        -0.08302900195121765
      ],
      "type": "VEC3"
    },
    {
      "bufferView": 2,
      "byteOffset": 660276,
      "componentType": 5126,
      "count": 55023,
      "max": [
        0.9999994039535522,
        0.999958872795105,
        0.9995948672294617
      ],
      "min": [
        -0.9999626874923706,
        -0.9999898672103882,
        -0.9999927282333374
      ],
      "type": "VEC3"
    },
    {
      "bufferView": 3,
      "componentType": 5126,
      "count": 55023,
      "max": [
        0.9999502897262573,
        0.9999766945838928,
        0.9999985694885254,
        1.0
      ],
      "min": [
        -0.9999591112136841,
        -0.9999931454658508,
        -0.9999778270721436,
        -1.0
      ],
      "type": "VEC4"
    },
    {
      "bufferView": 1,
      "componentType": 5126,
      "count": 55023,
      "max": [
        0.9995120167732239,
        0.9907320141792297
      ],
      "min": [
        0.0004879999905824661,
        0.0004879999905824661
      ],
      "type": "VEC2"
    },
    {
      "bufferView": 0,
      "componentType": 5125,
      "count": 180000,
      "type": "SCALAR"
    }
  ],
  "asset": {
    "extras": {
      "author": "Cleveland Museum of Art (https://sketchfab.com/clevelandart)",
      "license": "CC0-1.0 (http://creativecommons.org/publicdomain/zero/1.0/)",
      "source": "https://sketchfab.com/3d-models/1972764-mortuary-figure-of-the-zodiac-3d7d84f76ff24fabbd9f16ef918c6369",
      "title": "1972.76.4 Mortuary Figure of the Zodiac"
    },
    "generator": "Sketchfab-15.30.0",
    "version": "2.0"
  },
  "bufferViews": [
    {
      "buffer": 0,
      "byteLength": 720000,
      "name": "floatBufferViews",
      "target": 34963
    },
    {
      "buffer": 0,
      "byteLength": 440184,
      "byteOffset": 720000,
      "byteStride": 8,
      "name": "floatBufferViews",
      "target": 34962
    },
    {
      "buffer": 0,
      "byteLength": 1320552,
      "byteOffset": 1160184,
      "byteStride": 12,
      "name": "floatBufferViews",
      "target": 34962
    },
    {
      "buffer": 0,
      "byteLength": 880368,
      "byteOffset": 2480736,
      "byteStride": 16,
      "name": "floatBufferViews",
      "target": 34962
    }
  ],
  "buffers": [
    {
      "byteLength": 3361104,
      "uri": "scene.bin"
    }
  ],
  "images": [
    {
      "uri": "textures/Zodiac_Hare_Mats_baseColor.jpeg"
    },
    {
      "uri": "textures/Zodiac_Hare_Mats_metallicRoughness.png"
    },
    {
      "uri": "textures/Zodiac_Hare_Mats_normal.png"
    }
  ],
  "materials": [
    {
      "doubleSided": true,
      "name": "Zodiac_Hare_Mats",
      "normalTexture": {
        "index": 2
      },
      "pbrMetallicRoughness": {
        "baseColorTexture": {
          "index": 0
        },
        "metallicFactor": 0.0,
        "metallicRoughnessTexture": {
          "index": 1
        }
      }
    }
  ],
  "meshes": [
    {
      "name": "Object_0",
      "primitives": [
        {
          "attributes": {
            "NORMAL": 1,
            "POSITION": 0,
            "TANGENT": 2,
            "TEXCOORD_0": 3
          },
          "indices": 4,
          "material": 0,
          "mode": 4
        }
      ]
    }
  ],
  "nodes": [
    {
      "children": [
        1
      ],
      "matrix": [
        0.6198102235794067,
        -1.7424988413859075e-16,
        0.7847517132759094,
        0.0,
        0.7847517132759094,
        1.376255162231847e-16,
        -0.6198102235794067,
        0.0,
        0.0,
        1.0,
        2.220446049250313e-16,
        0.0,
        0.0,
        0.0,
        0.0,
        1.0
      ],
      "name": "Sketchfab_model"
    },
    {
      "children": [
        2
      ],
      "name": "Zodiac Hare.obj.cleaner.materialmerger.gles"
    },
    {
      "mesh": 0,
      "name": "Object_2"
    }
  ],
  "samplers": [
    {
      "magFilter": 9729,
      "minFilter": 9987,
      "wrapS": 10497,
      "wrapT": 10497
    }
  ],
  "scene": 0,
  "scenes": [
    {
      "name": "Sketchfab_Scene",
      "nodes": [
        0
      ]
    }
  ],
  "textures": [
    {
      "sampler": 0,
      "source": 0
    },
    {
      "sampler": 0,
      "source": 1
    },
    {
      "sampler": 0,
      "source": 2
    }
  ]
}
