{
  "accessors": [
    {
      "bufferView": 2,
      "componentType": 5126,
      "count": 43275,
      "max": [
        0.710682213306427,
        0.6630469560623169,
        0.7174928188323975
      ],
      "min": [
        -0.7093216776847839,
        0.0016170740127563477,
        -0.6963707208633423
      ],
      "type": "VEC3"
    },
    {
      "bufferView": 2,
      "byteOffset": 519300,
      "componentType": 5126,
      "count": 43275,
      "max": [
        0.9995102882385254,
        0.9999924898147583,
        0.9997894763946533
      ],
      "min": [
        -0.9999927282333374,
        -0.9999768733978271,
        -0.9995184540748596
      ],
      "type": "VEC3"
    },
    {
      "bufferView": 1,
      "componentType": 5126,
      "count": 43275,
      "max": [
        0.997044026851654,
        0.9991440176963806
      ],
      "min": [
        0.0007810000097379088,
        0.0007809996604919434
      ],
      "type": "VEC2"
    },
    {
      "bufferView": 1,
      "byteOffset": 346200,
      "componentType": 5126,
      "count": 43275,
      "max": [
        0.997044026851654,
        0.9991440176963806
      ],
      "min": [
        0.0007810000097379088,
        0.0007809996604919434
      ],
      "type": "VEC2"
    },
    {
      "bufferView": 0,
      "componentType": 5125,
      "count": 240000,
      "type": "SCALAR"
    }
  ],
  "asset": {
    "extras": {
      "author": "Museum für Kunst und Gewerbe Hamburg (https://sketchfab.com/mkghamburg)",
      "license": "CC0-1.0 (http://creativecommons.org/publicdomain/zero/1.0/)",
      "source": "https://sketchfab.com/3d-models/turkise-schale-mit-blume-71b77cbc60ef41279f142d3b7be6bf90",
      "title": "Türkise Schale mit Blume"
    },
    "generator": "Sketchfab-12.68.0",
    "version": "2.0"
  },
  "bufferViews": [
    {
      "buffer": 0,
      "byteLength": 960000,
      "name": "floatBufferViews",
      "target": 34963
    },
    {
      "buffer": 0,
      "byteLength": 692400,
      "byteOffset": 960000,
      "byteStride": 8,
      "name": "floatBufferViews",
      "target": 34962
    },
    {
      "buffer": 0,
      "byteLength": 1038600,
      "byteOffset": 1652400,
      "byteStride": 12,
      "name": "floatBufferViews",
      "target": 34962
    }
  ],
  "buffers": [
    {
      "byteLength": 2691000,
      "uri": "scene.bin"
    }
  ],
  "extensionsUsed": [
    "KHR_materials_unlit"
  ],
  "images": [
    {
      "uri": "textures/material_0_baseColor.jpeg"
    }
  ],
  "materials": [
    {
      "doubleSided": true,
      "extensions": {
        "KHR_materials_unlit": {}
      },
      "name": "material_0",
      "pbrMetallicRoughness": {
        "baseColorTexture": {
          "index": 0
        },
        "metallicFactor": 0.0
      }
    }
  ],
  "meshes": [
    {
      "name": "Object_0",
      "primitives": [
        {
          "attributes": {
            "NORMAL": 1,
            "POSITION": 0,
            "TEXCOORD_0": 2,
            "TEXCOORD_1": 3
          },
          "indices": 4,
          "material": 0,
          "mode": 4
        }
      ]
    }
  ],
  "nodes": [
    {
      "children": [
        1
      ],
      "matrix": [
        1.0,
        0.0,
        0.0,
        0.0,
        0.0,
        2.220446049250313e-16,
        -1.0,
        0.0,
        0.0,
        1.0,
        2.220446049250313e-16,
        0.0,
        0.0,
        0.0,
        0.0,
        1.0
      ],
      "name": "Sketchfab_model"
    },
    {
      "children": [
        2
      ],
      "name": "root"
    },
    {
      "children": [
        3
      ],
      "matrix": [
        1.0,
        0.0,
        0.0,
        0.0,
        0.0,
        2.220446049250313e-16,
        1.0,
        0.0,
        0.0,
        -1.0,
        2.220446049250313e-16,
        0.0,
        0.0,
        0.0,
        0.0,
        1.0
      ],
      "name": "GLTF_SceneRootNode"
    },
    {
      "children": [
        4
      ],
      "matrix": [
        0.15020640194416046,
        0.0,
        0.0,
        0.0,
        0.0,
        0.15020643174648285,
        0.0,
        0.0,
        0.0,
        0.0,
        0.15020640194416046,
        0.0,
        0.0,
        0.0,
        0.0,
        1.0
      ],
      "name": "Bowl_low_0"
    },
    {
      "mesh": 0,
      "name": "Object_4"
    }
  ],
  "samplers": [
    {
      "magFilter": 9729,
      "minFilter": 9987,
      "wrapS": 10497,
      "wrapT": 10497
    }
  ],
  "scene": 0,
  "scenes": [
    {
      "name": "Sketchfab_Scene",
      "nodes": [
        0
      ]
    }
  ],
  "textures": [
    {
      "sampler": 0,
      "source": 0
    }
  ]
}
