{
  "accessors": [
    {
      "bufferView": 2,
      "componentType": 5126,
      "count": 65532,
      "max": [
        1.2531030178070068,
        0.5505589842796326,
        2.9612019062042236
      ],
      "min": [
        -0.6364780068397522,
        -0.8548610210418701,
        1.2223869562149048
      ],
      "type": "VEC3"
    },
    {
      "bufferView": 2,
      "byteOffset": 786384,
      "componentType": 5126,
      "count": 65532,
      "max": [
        0.9999906420707703,
        0.9997950792312622,
        0.9999970197677612
      ],
      "min": [
        -0.9999748468399048,
        -0.9998940229415894,
        -0.9995234608650208
      ],
      "type": "VEC3"
    },
    {
      "bufferView": 1,
      "componentType": 5126,
      "count": 65532,
      "max": [
        0.9966999888420105,
        0.9991000294685364
      ],
      "min": [
        0.0019399999873712659,
        0.004550000187009573
      ],
      "type": "VEC2"
    },
    {
      "bufferView": 0,
      "componentType": 5125,
      "count": 336966,
      "type": "SCALAR"
    },
    {
      "bufferView": 2,
      "byteOffset": 1572768,
      "componentType": 5126,
      "count": 33824,
      "max": [
        1.2505370378494263,
        0.4404900074005127,
        2.9612019062042236
      ],
      "min": [
        -0.6302599906921387,
        -0.6836749911308289,
        1.5938589572906494
      ],
      "type": "VEC3"
    },
    {
      "bufferView": 2,
      "byteOffset": 1978656,
      "componentType": 5126,
      "count": 33824,
      "max": [
        1.0,
        1.0,
        1.0
      ],
      "min": [
        -1.0,
        -1.0,
        -0.9997283220291138
      ],
      "type": "VEC3"
    },
    {
      "bufferView": 1,
      "byteOffset": 524256,
      "componentType": 5126,
      "count": 33824,
      "max": [
        0.9951599836349487,
        0.9998700022697449
      ],
      "min": [
        0.0026000000070780516,
        0.0036800000816583633
      ],
      "type": "VEC2"
    },
    {
      "bufferView": 0,
      "byteOffset": 1347864,
      "componentType": 5125,
      "count": 144123,
      "type": "SCALAR"
    },
    {
      "bufferView": 2,
      "byteOffset": 2384544,
      "componentType": 5126,
      "count": 65532,
      "max": [
        0.5852029919624329,
        0.7294129729270935,
        1.2307779788970947
      ],
      "min": [
        -0.7162079811096191,
        -0.5923299789428711,
        -0.0151589997112751
      ],
      "type": "VEC3"
    },
    {
      "bufferView": 2,
      "byteOffset": 3170928,
      "componentType": 5126,
      "count": 65532,
      "max": [
        0.9999983310699463,
        0.9999848008155823,
        1.0
      ],
      "min": [
        -0.9999728798866272,
        -0.9999642968177795,
        -0.9999967217445374
      ],
      "type": "VEC3"
    },
    {
      "bufferView": 1,
      "byteOffset": 794848,
      "componentType": 5126,
      "count": 65532,
      "max": [
        0.9968500137329102,
        0.9992499947547913
      ],
      "min": [
        0.0,
        0.0
      ],
      "type": "VEC2"
    },
    {
      "bufferView": 0,
      "byteOffset": 1924356,
      "componentType": 5125,
      "count": 343692,
      "type": "SCALAR"
    },
    {
      "bufferView": 2,
      "byteOffset": 3957312,
      "componentType": 5126,
      "count": 9565,
      "max": [
        0.5618889927864075,
        0.6628080010414124,
        1.22576105594635
      ],
      "min": [
        -0.6189919710159302,
        -0.5749030113220215,
        0.62391597032547
      ],
      "type": "VEC3"
    },
    {
      "bufferView": 2,
      "byteOffset": 4072092,
      "componentType": 5126,
      "count": 9565,
      "max": [
        0.9995289444923401,
        0.9989578127861023,
        0.9999998807907104
      ],
      "min": [
        -0.9955329895019531,
        -0.9995476603507996,
        -0.9996305704116821
      ],
      "type": "VEC3"
    },
    {
      "bufferView": 1,
      "byteOffset": 1319104,
      "componentType": 5126,
      "count": 9565,
      "max": [
        0.9946100115776062,
        0.9993199706077576
      ],
      "min": [
        0.001879999996162951,
        0.00559999980032444
      ],
      "type": "VEC2"
    },
    {
      "bufferView": 0,
      "byteOffset": 3299124,
      "componentType": 5125,
      "count": 30303,
      "type": "SCALAR"
    }
  ],
  "asset": {
    "extras": {
      "author": "The Hunt Museum (https://sketchfab.com/TheHuntMuseum)",
      "license": "CC0-1.0 (http://creativecommons.org/publicdomain/zero/1.0/)",
      "source": "https://sketchfab.com/3d-models/rearing-horse-9e3bf0e876364988b171f165548735fd",
      "title": "Rearing Horse"
    },
    "generator": "Sketchfab-14.20.0",
    "version": "2.0"
  },
  "bufferViews": [
    {
      "buffer": 0,
      "byteLength": 3420336,
      "name": "floatBufferViews",
      "target": 34963
    },
    {
      "buffer": 0,
      "byteLength": 1395624,
      "byteOffset": 3420336,
      "byteStride": 8,
      "name": "floatBufferViews",
      "target": 34962
    },
    {
      "buffer": 0,
      "byteLength": 4186872,
      "byteOffset": 4815960,
      "byteStride": 12,
      "name": "floatBufferViews",
      "target": 34962
    }
  ],
  "buffers": [
    {
      "byteLength": 9002832,
      "uri": "scene.bin"
    }
  ],
  "images": [
    {
      "uri": "textures/initialShadingGroup_baseColor.png"
    }
  ],
  "materials": [
    {
      "doubleSided": true,
      "name": "initialShadingGroup",
      "pbrMetallicRoughness": {
        "baseColorTexture": {
          "index": 0
        },
        "roughnessFactor": 0.2761882702880619
      }
    },
    {
      "doubleSided": true,
      "name": "lambert2SG",
      "pbrMetallicRoughness": {
        "baseColorTexture": {
          "index": 0
        },
        "metallicFactor": 0.0
      }
    }
  ],
  "meshes": [
    {
      "name": "Object_0",
      "primitives": [
        {
          "attributes": {
            "NORMAL": 1,
            "POSITION": 0,
            "TEXCOORD_0": 2
          },
          "indices": 3,
          "material": 0,
          "mode": 4
        }
      ]
    },
    {
      "name": "Object_1",
      "primitives": [
        {
          "attributes": {
            "NORMAL": 5,
            "POSITION": 4,
            "TEXCOORD_0": 6
          },
          "indices": 7,
          "material": 0,
          "mode": 4
        }
      ]
    },
    {
      "name": "Object_2",
      "primitives": [
        {
          "attributes": {
            "NORMAL": 9,
            "POSITION": 8,
            "TEXCOORD_0": 10
          },
          "indices": 11,
          "material": 1,
          "mode": 4
        }
      ]
    },
    {
      "name": "Object_3",
      "primitives": [
        {
          "attributes": {
            "NORMAL": 13,
            "POSITION": 12,
            "TEXCOORD_0": 14
          },
          "indices": 15,
          "material": 1,
          "mode": 4
        }
      ]
    }
  ],
  "nodes": [
    {
      "children": [
        1
      ],
      "matrix": [
        0.13124734163284302,
        0.018376780673861722,
        -0.9911792874336243,
        0.0,
        -0.9913091063499451,
        0.011473027057945758,
        -0.13105180859565735,
        0.0,
        0.008963516913354397,
        0.9997652769088745,
        0.019722875207662804,
        0.0,
        0.0,
        0.0,
        0.0,
        1.0
      ],
      "name": "Sketchfab_model"
    },
    {
      "children": [
        2,
        3,
        4,
        5
      ],
      "name": "MG 037_Rearing_Horse_export.obj.cleaner.materialmerger.gles"
    },
    {
      "mesh": 0,
      "name": "Object_2"
    },
    {
      "mesh": 1,
      "name": "Object_3"
    },
    {
      "mesh": 2,
      "name": "Object_4"
    },
    {
      "mesh": 3,
      "name": "Object_5"
    }
  ],
  "samplers": [
    {
      "magFilter": 9729,
      "minFilter": 9987,
      "wrapS": 10497,
      "wrapT": 10497
    }
  ],
  "scene": 0,
  "scenes": [
    {
      "name": "Sketchfab_Scene",
      "nodes": [
        0
      ]
    }
  ],
  "textures": [
    {
      "sampler": 0,
      "source": 0
    }
  ]
}
