{
  "accessors": [
    {
      "bufferView": 2,
      "componentType": 5126,
      "count": 65532,
      "max": [
        -0.7201030254364014,
        18.58125877380371,
        4.675008773803711
      ],
      "min": [
        -5.835506916046143,
        14.268686294555664,
        -3.2327120304107666
      ],
      "type": "VEC3"
    },
    {
      "bufferView": 2,
      "byteOffset": 786384,
      "componentType": 5126,
      "count": 65532,
      "max": [
        0.9999961256980896,
        0.9999978542327881,
        0.9998220205307007
      ],
      "min": [
        -0.9999991059303284,
        -0.9999958872795105,
        -0.999993622303009
      ],
      "type": "VEC3"
    },
    {
      "bufferView": 1,
      "componentType": 5126,
      "count": 65532,
      "max": [
        0.9838579893112183,
        0.9914860129356384
      ],
      "min": [
        0.004025000147521496,
        0.003459000028669834
      ],
      "type": "VEC2"
    },
    {
      "bufferView": 0,
      "componentType": 5125,
      "count": 355608,
      "type": "SCALAR"
    },
    {
      "bufferView": 2,
      "byteOffset": 1572768,
      "componentType": 5126,
      "count": 38556,
      "max": [
        -0.7201030254364014,
        18.586929321289063,
        4.748746871948242
      ],
      "min": [
        -5.835506916046143,
        13.421121597290039,
        -1.60213303565979
      ],
      "type": "VEC3"
    },
    {
      "bufferView": 2,
      "byteOffset": 2035440,
      "componentType": 5126,
      "count": 38556,
      "max": [
        0.9999372363090515,
        0.9999911189079285,
        0.9999411106109619
      ],
      "min": [
        -0.9999684691429138,
        -0.9999929070472717,
        -0.9987167716026306
      ],
      "type": "VEC3"
    },
    {
      "bufferView": 1,
      "byteOffset": 524256,
      "componentType": 5126,
      "count": 38556,
      "max": [
        0.9984859824180603,
        0.9836620092391968
      ],
      "min": [
        0.003886000020429492,
        0.001310999970883131
      ],
      "type": "VEC2"
    },
    {
      "bufferView": 0,
      "byteOffset": 1422432,
      "componentType": 5125,
      "count": 178932,
      "type": "SCALAR"
    }
  ],
  "asset": {
    "extras": {
      "author": "The Hunt Museum (https://sketchfab.com/TheHuntMuseum)",
      "license": "CC0-1.0 (http://creativecommons.org/publicdomain/zero/1.0/)",
      "source": "https://sketchfab.com/3d-models/limestone-statue-of-god-thoth-as-a-baboon-ea511ed3b3b343da892b64656d0d5c21",
      "title": "Limestone Statue of god Thoth as a Baboon"
    },
    "generator": "Sketchfab-14.49.0",
    "version": "2.0"
  },
  "bufferViews": [
    {
      "buffer": 0,
      "byteLength": 2138160,
      "name": "floatBufferViews",
      "target": 34963
    },
    {
      "buffer": 0,
      "byteLength": 832704,
      "byteOffset": 2138160,
      "byteStride": 8,
      "name": "floatBufferViews",
      "target": 34962
    },
    {
      "buffer": 0,
      "byteLength": 2498112,
      "byteOffset": 2970864,
      "byteStride": 12,
      "name": "floatBufferViews",
      "target": 34962
    }
  ],
  "buffers": [
    {
      "byteLength": 5468976,
      "uri": "scene.bin"
    }
  ],
  "images": [
    {
      "uri": "textures/MG005_baseColor.jpeg"
    }
  ],
  "materials": [
    {
      "doubleSided": true,
      "name": "MG005",
      "pbrMetallicRoughness": {
        "baseColorTexture": {
          "index": 0
        },
        "metallicFactor": 0.0
      }
    }
  ],
  "meshes": [
    {
      "name": "Object_0",
      "primitives": [
        {
          "attributes": {
            "NORMAL": 1,
            "POSITION": 0,
            "TEXCOORD_0": 2
          },
          "indices": 3,
          "material": 0,
          "mode": 4
        }
      ]
    },
    {
      "name": "Object_1",
      "primitives": [
        {
          "attributes": {
            "NORMAL": 5,
            "POSITION": 4,
            "TEXCOORD_0": 6
          },
          "indices": 7,
          "material": 0,
          "mode": 4
        }
      ]
    }
  ],
  "nodes": [
    {
      "children": [
        1
      ],
      "matrix": [
        0.9998448491096497,
        0.01761358417570591,
        3.911001339608402e-18,
        0.0,
        0.0,
        2.220446049250313e-16,
        -1.0,
        0.0,
        -0.01761358417570591,
        0.9998448491096497,
        2.220101545068797e-16,
        0.0,
        0.0,
        0.0,
        0.0,
        1.0
      ],
      "name": "Sketchfab_model"
    },
    {
      "children": [
        2,
        3
      ],
      "name": "MG005.obj.cleaner.materialmerger.gles"
    },
    {
      "mesh": 0,
      "name": "Object_2"
    },
    {
      "mesh": 1,
      "name": "Object_3"
    }
  ],
  "samplers": [
    {
      "magFilter": 9729,
      "minFilter": 9987,
      "wrapS": 10497,
      "wrapT": 10497
    }
  ],
  "scene": 0,
  "scenes": [
    {
      "name": "Sketchfab_Scene",
      "nodes": [
        0
      ]
    }
  ],
  "textures": [
    {
      "sampler": 0,
      "source": 0
    }
  ]
}
