{
  "accessors": [
    {
      "bufferView": 2,
      "componentType": 5126,
      "count": 34278,
      "max": [
        -0.002824000082910061,
        0.40972700715065,
        0.27361100912094116
      ],
      "min": [
        -0.012564999982714653,
        -0.4163359999656677,
        -0.26781898736953735
      ],
      "type": "VEC3"
    },
    {
      "bufferView": 2,
      "byteOffset": 411336,
      "componentType": 5126,
      "count": 34278,
      "max": [
        0.9999988079071045,
        0.9922446012496948,
        0.9998103976249695
      ],
      "min": [
        -1.0,
        -0.9997022747993469,
        -0.9998549222946167
      ],
      "type": "VEC3"
    },
    {
      "bufferView": 3,
      "componentType": 5126,
      "count": 34278,
      "max": [
        0.9895033240318298,
        1.0,
        1.0,
        1.0
      ],
      "min": [
        -0.9985607266426086,
        -0.9999998807907104,
        -0.9999995231628418,
        -1.0
      ],
      "type": "VEC4"
    },
    {
      "bufferView": 1,
      "componentType": 5126,
      "count": 34278,
      "max": [
        0.999987006187439,
        0.9709979891777039
      ],
      "min": [
        8.900000102585182e-05,
        3.899999865097925e-05
      ],
      "type": "VEC2"
    },
    {
      "bufferView": 0,
      "componentType": 5125,
      "count": 192000,
      "type": "SCALAR"
    }
  ],
  "asset": {
    "extras": {
      "author": "Minneapolis Institute of Art (https://sketchfab.com/artsmia)",
      "license": "CC0-1.0 (http://creativecommons.org/publicdomain/zero/1.0/)",
      "source": "https://sketchfab.com/3d-models/jmw-turners-borrowdale-rosthwaite-bridge-b076171ae027443895407472308224ee",
      "title": "JMW Turner's 'Borrowdale, Rosthwaite Bridge...'"
    },
    "generator": "Sketchfab-12.59.0",
    "version": "2.0"
  },
  "bufferViews": [
    {
      "buffer": 0,
      "byteLength": 768000,
      "name": "floatBufferViews",
      "target": 34963
    },
    {
      "buffer": 0,
      "byteLength": 274224,
      "byteOffset": 768000,
      "byteStride": 8,
      "name": "floatBufferViews",
      "target": 34962
    },
    {
      "buffer": 0,
      "byteLength": 822672,
      "byteOffset": 1042224,
      "byteStride": 12,
      "name": "floatBufferViews",
      "target": 34962
    },
    {
      "buffer": 0,
      "byteLength": 548448,
      "byteOffset": 1864896,
      "byteStride": 16,
      "name": "floatBufferViews",
      "target": 34962
    }
  ],
  "buffers": [
    {
      "byteLength": 2413344,
      "uri": "scene.bin"
    }
  ],
  "images": [
    {
      "uri": "textures/181106_mia335_013134_201_64Kmesh_OBJ_baseColor.jpeg"
    },
    {
      "uri": "textures/181106_mia335_013134_201_64Kmesh_OBJ_normal.png"
    }
  ],
  "materials": [
    {
      "doubleSided": true,
      "name": "181106_mia335_013134_201_64Kmesh_OBJ",
      "normalTexture": {
        "index": 1
      },
      "pbrMetallicRoughness": {
        "baseColorFactor": [
          0.9769151581,
          0.9769151581,
          0.9769151581,
          1.0
        ],
        "baseColorTexture": {
          "index": 0
        },
        "metallicFactor": 0.0
      }
    }
  ],
  "meshes": [
    {
      "name": "Object_0",
      "primitives": [
        {
          "attributes": {
            "NORMAL": 1,
            "POSITION": 0,
            "TANGENT": 2,
            "TEXCOORD_0": 3
          },
          "indices": 4,
          "material": 0,
          "mode": 4
        }
      ]
    }
  ],
  "nodes": [
    {
      "children": [
        1
      ],
      "matrix": [
        0.009127540580164295,
        -2.3779515316361634e-16,
        1.0709341631781726,
        0.0,
        1.0709341631781726,
        2.026721142059772e-18,
        -0.009127540580164295,
        0.0,
        0.0,
        1.0709730386734009,
        2.3780378525759557e-16,
        0.0,
        -0.004297418054193258,
        -2.7398703429593936e-18,
        0.012339279055595398,
        1.0
      ],
      "name": "Sketchfab_model"
    },
    {
      "children": [
        2
      ],
      "name": "Turner1Mmapped3.obj.cleaner.materialmerger.gles"
    },
    {
      "mesh": 0,
      "name": "Object_2"
    }
  ],
  "samplers": [
    {
      "magFilter": 9729,
      "minFilter": 9987,
      "wrapS": 10497,
      "wrapT": 10497
    }
  ],
  "scene": 0,
  "scenes": [
    {
      "name": "Sketchfab_Scene",
      "nodes": [
        0
      ]
    }
  ],
  "textures": [
    {
      "sampler": 0,
      "source": 0
    },
    {
      "sampler": 0,
      "source": 1
    }
  ]
}
