{
  "accessors": [
    {
      "bufferView": 2,
      "componentType": 5126,
      "count": 144,
      "max": [
        6.25,
        1.0,
        1.0
      ],
      "min": [
        -6.25,
        -1.0,
        -1.0
      ],
      "type": "VEC3"
    },
    {
      "bufferView": 2,
      "byteOffset": 1728,
      "componentType": 5126,
      "count": 144,
      "max": [
        1.0,
        1.0,
        1.0
      ],
      "min": [
        -1.0,
        -1.0,
        -1.0
      ],
      "type": "VEC3"
    },
    {
      "bufferView": 3,
      "componentType": 5126,
      "count": 144,
      "max": [
        1.0,
        0.0,
        1.0,
        1.0
      ],
      "min": [
        -1.0,
        0.0,
        -1.0,
        -1.0
      ],
      "type": "VEC4"
    },
    {
      "bufferView": 1,
      "componentType": 5126,
      "count": 144,
      "max": [
        0.9945961833000183,
        0.996207594871521
      ],
      "min": [
        0.3393719792366028,
        0.007405191659927368
      ],
      "type": "VEC2"
    },
    {
      "bufferView": 1,
      "byteOffset": 1152,
      "componentType": 5126,
      "count": 144,
      "max": [
        0.9945961833000183,
        0.996207594871521
      ],
      "min": [
        0.3393719792366028,
        0.007405191659927368
      ],
      "type": "VEC2"
    },
    {
      "bufferView": 1,
      "byteOffset": 2304,
      "componentType": 5126,
      "count": 144,
      "max": [
        0.9945961833000183,
        0.996207594871521
      ],
      "min": [
        0.3393719792366028,
        0.007405191659927368
      ],
      "type": "VEC2"
    },
    {
      "bufferView": 1,
      "byteOffset": 3456,
      "componentType": 5126,
      "count": 144,
      "max": [
        0.9945961833000183,
        0.996207594871521
      ],
      "min": [
        0.3393719792366028,
        0.007405191659927368
      ],
      "type": "VEC2"
    },
    {
      "bufferView": 0,
      "componentType": 5125,
      "count": 216,
      "type": "SCALAR"
    },
    {
      "bufferView": 2,
      "byteOffset": 3456,
      "componentType": 5126,
      "count": 168,
      "max": [
        6.304432392120361,
        1.0500000715255737,
        46.00000762939453
      ],
      "min": [
        -6.304432392120361,
        -1.0500000715255737,
        -46.0
      ],
      "type": "VEC3"
    },
    {
      "bufferView": 2,
      "byteOffset": 5472,
      "componentType": 5126,
      "count": 168,
      "max": [
        1.0,
        1.0,
        1.0
      ],
      "min": [
        -1.0,
        -1.0,
        -1.0
      ],
      "type": "VEC3"
    },
    {
      "bufferView": 3,
      "byteOffset": 2304,
      "componentType": 5126,
      "count": 168,
      "max": [
        1.0,
        1.0335166526580491e-14,
        5.41096369488514e-06,
        1.0
      ],
      "min": [
        -1.0,
        -1.0,
        -5.41096369488514e-06,
        -1.0
      ],
      "type": "VEC4"
    },
    {
      "bufferView": 1,
      "byteOffset": 4608,
      "componentType": 5126,
      "count": 168,
      "max": [
        0.3143607974052429,
        0.7895971536636353
      ],
      "min": [
        0.00907418504357338,
        0.0103936567902565
      ],
      "type": "VEC2"
    },
    {
      "bufferView": 1,
      "byteOffset": 5952,
      "componentType": 5126,
      "count": 168,
      "max": [
        0.3143607974052429,
        0.7895971536636353
      ],
      "min": [
        0.00907418504357338,
        0.0103936567902565
      ],
      "type": "VEC2"
    },
    {
      "bufferView": 1,
      "byteOffset": 7296,
      "componentType": 5126,
      "count": 168,
      "max": [
        0.3143607974052429,
        0.7895971536636353
      ],
      "min": [
        0.00907418504357338,
        0.0103936567902565
      ],
      "type": "VEC2"
    },
    {
      "bufferView": 1,
      "byteOffset": 8640,
      "componentType": 5126,
      "count": 168,
      "max": [
        0.3143607974052429,
        0.7895971536636353
      ],
      "min": [
        0.00907418504357338,
        0.0103936567902565
      ],
      "type": "VEC2"
    },
    {
      "bufferView": 0,
      "byteOffset": 864,
      "componentType": 5125,
      "count": 384,
      "type": "SCALAR"
    }
  ],
  "asset": {
    "extras": {
      "author": "JungleBird (https://sketchfab.com/junglebird)",
      "license": "SKETCHFAB Standard (https://sketchfab.com/licenses)",
      "source": "https://sketchfab.com/3d-models/bench-343ea60382e241f4aadd38ea52299914",
      "title": "Bench"
    },
    "generator": "Sketchfab-16.16.0",
    "version": "2.0"
  },
  "bufferViews": [
    {
      "buffer": 0,
      "byteLength": 2400,
      "name": "floatBufferViews",
      "target": 34963
    },
    {
      "buffer": 0,
      "byteLength": 9984,
      "byteOffset": 2400,
      "byteStride": 8,
      "name": "floatBufferViews",
      "target": 34962
    },
    {
      "buffer": 0,
      "byteLength": 7488,
      "byteOffset": 12384,
      "byteStride": 12,
      "name": "floatBufferViews",
      "target": 34962
    },
    {
      "buffer": 0,
      "byteLength": 4992,
      "byteOffset": 19872,
      "byteStride": 16,
      "name": "floatBufferViews",
      "target": 34962
    }
  ],
  "buffers": [
    {
      "byteLength": 24864,
      "uri": "scene.bin"
    }
  ],
  "extensionsUsed": [
    "KHR_materials_specular"
  ],
  "images": [
    {
      "uri": "textures/bench04_baseColor.png"
    },
    {
      "uri": "textures/bench04_metallicRoughness.png"
    },
    {
      "uri": "textures/bench04_normal.png"
    }
  ],
  "materials": [
    {
      "doubleSided": true,
      "extensions": {
        "KHR_materials_specular": {
          "specularColorFactor": [
            1.0,
            1.0,
            1.0
          ],
          "specularFactor": 0.62
        }
      },
      "name": "bench04",
      "normalTexture": {
        "index": 2,
        "scale": 0.382
      },
      "pbrMetallicRoughness": {
        "baseColorTexture": {
          "index": 0
        },
        "metallicRoughnessTexture": {
          "index": 1
        },
        "roughnessFactor": 0.846
      }
    }
  ],
  "meshes": [
    {
      "name": "Object_0",
      "primitives": [
        {
          "attributes": {
            "NORMAL": 1,
            "POSITION": 0,
            "TANGENT": 2,
            "TEXCOORD_0": 3,
            "TEXCOORD_1": 4,
            "TEXCOORD_2": 5,
            "TEXCOORD_3": 6
          },
          "indices": 7,
          "material": 0,
          "mode": 4
        }
      ]
    },
    {
      "name": "Object_1",
      "primitives": [
        {
          "attributes": {
            "NORMAL": 9,
            "POSITION": 8,
            "TANGENT": 10,
            "TEXCOORD_0": 11,
            "TEXCOORD_1": 12,
            "TEXCOORD_2": 13,
            "TEXCOORD_3": 14
          },
          "indices": 15,
          "material": 0,
          "mode": 4
        }
      ]
    }
  ],
  "nodes": [
    {
      "children": [
        1
      ],
      "matrix": [
        1.0,
        0.0,
        0.0,
        0.0,
        0.0,
        2.220446049250313e-16,
        -1.0,
        0.0,
        0.0,
        1.0,
        2.220446049250313e-16,
        0.0,
        0.0,
        0.0,
        0.0,
        1.0
      ],
      "name": "Sketchfab_model"
    },
    {
      "children": [
        2
      ],
      "name": "root"
    },
    {
      "children": [
        3,
        5
      ],
      "matrix": [
        1.0,
        0.0,
        0.0,
        0.0,
        0.0,
        2.220446049250313e-16,
        1.0,
        0.0,
        0.0,
        -1.0,
        2.220446049250313e-16,
        0.0,
        0.0,
        0.0,
        0.0,
        1.0
      ],
      "name": "GLTF_SceneRootNode"
    },
    {
      "children": [
        4
      ],
      "matrix": [
        0.03999999910593033,
        0.0,
        0.0,
        0.0,
        0.0,
        0.009999999776482582,
        0.0,
        0.0,
        0.0,
        0.0,
        1.0,
        0.0,
        0.0,
        0.0,
        0.0,
        1.0
      ],
      "name": "Cube_0"
    },
    {
      "mesh": 0,
      "name": "Object_4"
    },
    {
      "children": [
        6
      ],
      "matrix": [
        0.0,
        0.0,
        -0.1379377543926239,
        0.0,
        0.0,
        0.19999998807907104,
        0.0,
        0.0,
        0.004999999888241291,
        0.0,
        0.0,
        0.0,
        0.0,
        -0.20590439438819885,
        0.0,
        1.0
      ],
      "name": "Cube.002_1"
    },
    {
      "mesh": 1,
      "name": "Object_6"
    }
  ],
  "samplers": [
    {
      "magFilter": 9729,
      "minFilter": 9987,
      "wrapS": 10497,
      "wrapT": 10497
    }
  ],
  "scene": 0,
  "scenes": [
    {
      "name": "Sketchfab_Scene",
      "nodes": [
        0
      ]
    }
  ],
  "textures": [
    {
      "sampler": 0,
      "source": 0
    },
    {
      "sampler": 0,
      "source": 1
    },
    {
      "sampler": 0,
      "source": 2
    }
  ]
}
